<svg width="57" height="57" viewBox="0 0 57 57" fill="none" xmlns="http://www.w3.org/2000/svg">
<path d="M28.5 56C43.6878 56 56 43.6878 56 28.5C56 13.3122 43.6878 1 28.5 1C13.3122 1 1 13.3122 1 28.5C1 43.6878 13.3122 56 28.5 56Z" fill="#6D8D3F" stroke="#707070"/>
<path fill-rule="evenodd" clip-rule="evenodd" d="M28.8889 38.5C36.8357 38.5 43.2778 33.799 43.2778 28C43.2778 22.201 36.8357 17.5 28.8889 17.5C20.9421 17.5 14.5 22.201 14.5 28C14.5 30.4635 15.6626 32.7289 17.6093 34.5198C16.8266 35.8875 15.6485 36.8775 14.8889 37.3333C18.115 38.255 20.5446 37.8113 21.9564 37.2032C24.0126 38.0297 26.3755 38.5 28.8889 38.5Z" fill="#F2ECEB"/>
</svg>
