<svg width="17" height="15" viewBox="0 0 17 15" fill="none" xmlns="http://www.w3.org/2000/svg">
<path d="M16.5447 1.8999C16.7961 1.8999 17 2.10302 17 2.35357C17 2.60413 16.7961 2.80724 16.5447 2.80724H13.333L11.8325 11.0542C11.7932 11.27 11.6046 11.4269 11.3845 11.4269H2.3288C2.11479 11.4269 1.92966 11.2784 1.88398 11.0701L0.994345 6.49656C0.94067 6.25178 1.09631 6.00999 1.34198 5.95651C1.58764 5.90303 1.83031 6.05811 1.88398 6.30289L2.69538 10.5196H11.0043L12.5048 2.27265C12.544 2.05682 12.7326 1.8999 12.9528 1.8999H16.5447Z" fill="#6D8D3F"/>
<path d="M3.74533 14.2498C3.21447 14.2498 2.78411 13.821 2.78411 13.292C2.78411 12.7631 3.21447 12.3343 3.74533 12.3343C4.2762 12.3343 4.70655 12.7631 4.70655 13.292C4.70655 13.821 4.2762 14.2498 3.74533 14.2498Z" fill="#6D8D3F"/>
<path d="M8.95614 13.292C8.95614 13.821 9.38649 14.2498 9.91735 14.2498C10.4482 14.2498 10.8786 13.821 10.8786 13.292C10.8786 12.7631 10.4482 12.3343 9.91735 12.3343C9.38649 12.3343 8.95614 12.7631 8.95614 13.292Z" fill="#6D8D3F"/>
<path fill-rule="evenodd" clip-rule="evenodd" d="M6.31264 8.22098C8.5828 8.22098 10.4231 6.38065 10.4231 4.11049C10.4231 1.84033 8.5828 0 6.31264 0C4.04248 0 2.20215 1.84033 2.20215 4.11049C2.20215 6.38065 4.04248 8.22098 6.31264 8.22098ZM8.13959 3.58826C8.42787 3.58826 8.66156 3.82196 8.66156 4.11023C8.66156 4.3985 8.42787 4.6322 8.13959 4.6322H6.85789V5.9139C6.85789 6.215 6.6138 6.45908 6.31271 6.45908C6.01161 6.45908 5.76753 6.215 5.76753 5.9139V4.6322H4.48582C4.19755 4.6322 3.96386 4.3985 3.96386 4.11023C3.96386 3.82196 4.19755 3.58826 4.48582 3.58826H5.76753V2.30656C5.76753 2.00546 6.01161 1.76138 6.31271 1.76138C6.6138 1.76138 6.85789 2.00546 6.85789 2.30656V3.58826H8.13959Z" fill="#6D8D3F"/>
</svg>
