<?xml version="1.0" encoding="UTF-8"?><svg id="Capa_2" xmlns="http://www.w3.org/2000/svg" viewBox="0 0 24.99 24.99"><defs><style>.cls-1{fill:#fff;}.cls-2{fill:#f3edec;}</style></defs><g id="Capa_1-2"><g><path class="cls-2" d="M0,18.45V6.54C0,2.94,2.94,0,6.54,0h11.91c3.59,0,6.54,2.94,6.54,6.54v11.91c0,3.59-2.94,6.54-6.54,6.54H6.54c-3.59,0-6.54-2.94-6.54-6.54Z"/><path class="cls-1" d="M18.66,14.24l.7-4.58h-4.4v-2.97c0-1.25,.61-2.48,2.58-2.48h2V.31S17.74,0,16,0C12.38,0,10.02,2.19,10.02,6.17v3.49H5.99v4.58h4.02v10.75h4.95V14.24h3.69Z"/></g></g></svg>