<svg xmlns="http://www.w3.org/2000/svg" viewBox="0 0 661.15 145.5"><defs><style>.cls-1{fill:#6d8e40;}.cls-2{fill:#fbf7e9;}</style></defs><g id="Capa_2" data-name="Capa 2"><g id="Capa_1-2" data-name="Capa 1"><path class="cls-1" d="M0,35A36.62,36.62,0,0,1,3,19.69a32.3,32.3,0,0,1,8-11A34.26,34.26,0,0,1,22,2.21,36.51,36.51,0,0,1,57.88,8.64a33.74,33.74,0,0,1,7.83,11.05,36.62,36.62,0,0,1,3,15.28V42.2H48.23V35q0-7.44-4.12-11a14.56,14.56,0,0,0-9.75-3.51A14.52,14.52,0,0,0,24.62,24Q20.5,27.53,20.5,35v75.56q0,7.44,4.12,11A14.48,14.48,0,0,0,34.36,125a14.52,14.52,0,0,0,9.75-3.52q4.13-3.51,4.12-11V83.6H32V65.51H68.73v45a36.17,36.17,0,0,1-3,15.47,31.92,31.92,0,0,1-7.83,10.65,34.34,34.34,0,0,1-11.16,6.63,35.52,35.52,0,0,1-24.72,0,32.24,32.24,0,0,1-10.95-6.63A30.62,30.62,0,0,1,3,126a36.18,36.18,0,0,1-3-15.47Z"/><path class="cls-1" d="M86.81,144.29V1.21h33q36.18,0,36.17,42,0,12.66-3.91,21.5T138.26,79l22.11,65.31H138.66L119.57,83.2H107.31v61.09ZM107.31,20.5V65.11H119a20.57,20.57,0,0,0,8.64-1.51,11.66,11.66,0,0,0,5-4.32,19.56,19.56,0,0,0,2.21-6.93,65.4,65.4,0,0,0,.61-9.55,65.45,65.45,0,0,0-.61-9.54,19,19,0,0,0-2.41-7.14Q128.62,20.51,118,20.5Z"/><path class="cls-1" d="M172.42,144.29V1.21h61.09V20.5H192.92v42h35.37V81.79H192.92v42h40.59v20.5Z"/><path class="cls-1" d="M246.78,144.29V1.21h61.09V20.5h-40.6v42h35.37V81.79H267.27v42h40.6v20.5Z"/><path class="cls-1" d="M320.33,144.29V1.21H340l31,86.21h.4V1.21h20.5V144.29H372.58l-31.35-86h-.41v86Z"/><path class="cls-2" d="M410.35,144.29V1.21h20.5V123.79h40.6v20.5Z"/><path class="cls-2" d="M485.31,144.29V1.21h20.5V144.29Z"/><path class="cls-2" d="M525.7,144.29V1.21h61.09V20.5H546.2V63.91h35.37V83.2H546.2v61.09Z"/><path class="cls-2" d="M600.06,144.29V1.21h61.09V20.5H620.56v42h35.36V81.79H620.56v42h40.59v20.5Z"/></g></g></svg>