<svg width="27" height="22" viewBox="0 0 27 22" fill="none" xmlns="http://www.w3.org/2000/svg">
<path d="M8.48792 22C18.679 22 24.2521 13.5377 24.2521 6.19718C24.2521 5.95549 24.2459 5.7169 24.2366 5.47831C25.3185 4.69437 26.2582 3.71521 27 2.60282C26.0078 3.04592 24.9383 3.34338 23.8193 3.47662C24.963 2.78873 25.8409 1.70113 26.2551 0.405916C25.1856 1.04113 23.9986 1.50592 22.7375 1.7538C21.7267 0.675493 20.2863 0 18.6944 0C15.6343 0 13.1523 2.48817 13.1523 5.55268C13.1523 5.98958 13.2017 6.41099 13.2975 6.82C8.69193 6.58761 4.6087 4.37831 1.87934 1.01634C1.40332 1.83746 1.12822 2.79183 1.12822 3.80817C1.12822 5.73549 2.10498 7.43662 3.59485 8.43127C2.68609 8.40338 1.83297 8.15239 1.08494 7.73718C1.08494 7.75887 1.08494 7.78366 1.08494 7.80845C1.08494 10.498 2.99519 12.7445 5.52982 13.2527C5.06308 13.3797 4.5747 13.4479 4.07086 13.4479C3.7154 13.4479 3.36611 13.4138 3.02919 13.3487C3.73394 15.5549 5.78019 17.16 8.20355 17.2065C6.30567 18.6969 3.9194 19.5831 1.32295 19.5831C0.874756 19.5831 0.435833 19.5583 0 19.5056C2.45117 21.0797 5.36291 22 8.49101 22" fill="#3D849B"/>
</svg>
