<?xml version="1.0" encoding="utf-8"?>
<!-- Generator: Adobe Illustrator 26.1.0, SVG Export Plug-In . SVG Version: 6.00 Build 0)  -->
<svg version="1.1" id="Capa_1" xmlns="http://www.w3.org/2000/svg" xmlns:xlink="http://www.w3.org/1999/xlink" x="0px" y="0px"
	 viewBox="0 0 242.3 34.2" style="enable-background:new 0 0 242.3 34.2;" xml:space="preserve">
<style type="text/css">
	.st0{fill:#F3EDEC;}
</style>
<g>
	<path class="st0" d="M0,0.8h8.2l8.1,24.3l8.4-24.3h7.9v32.6h-6.3V11.7l-7.4,21.7h-5.3L6.1,11.7v21.7H0V0.8z"/>
	<path class="st0" d="M39.2,0.8h22.2v5.8H46v7.1h14.5v5.8H46v8h16.4l-0.7,5.8H39.2V0.8z"/>
	<path class="st0" d="M81.8,15.6h12.5v13.8c-1.7,1.6-3.7,2.8-6,3.6c-2.3,0.9-4.7,1.3-7.2,1.3c-2.6,0-4.8-0.4-6.8-1.2
		c-1.9-0.8-3.5-2-4.8-3.5c-1.3-1.5-2.2-3.3-2.9-5.4c-0.6-2.1-1-4.4-1-7c0-2.6,0.3-5,1-7.1c0.7-2.1,1.7-3.9,3-5.4
		c1.3-1.5,2.9-2.6,4.7-3.4C76.4,0.4,78.5,0,80.7,0c2.1,0,3.9,0.3,5.4,0.8C87.6,1.3,88.9,2,90,2.9c1,0.9,1.9,2,2.5,3.2
		c0.6,1.2,1.1,2.5,1.3,3.9l-6.8,0.9c-0.2-0.8-0.4-1.5-0.7-2.2c-0.3-0.6-0.6-1.2-1.1-1.6c-0.5-0.4-1.1-0.8-1.8-1
		c-0.7-0.2-1.6-0.3-2.7-0.3c-2.6,0-4.6,1-5.9,3c-1.3,2-2,4.8-2,8.4c0,3.6,0.7,6.4,2,8.4c1.3,2,3.5,2.9,6.5,2.9
		c1.4,0,2.7-0.1,3.7-0.4c1-0.3,2.1-0.7,3-1.3v-5.4h-6.2V15.6z"/>
	<path class="st0" d="M109.3,0.8h6.5L128,33.4h-7.3l-2.6-7.5h-11.4l-2.6,7.5h-7L109.3,0.8z M116.3,20.3l-4-11.7l-3.9,11.7H116.3z"/>
	<path class="st0" d="M134.9,6.7H125V0.8h26.5v5.9h-9.8v26.7h-6.8V6.7z"/>
	<path class="st0" d="M155.8,0.8h6.8v26.7H178l-0.7,5.8h-21.5V0.8z"/>
	<path class="st0" d="M195.1,34.2c-2.4,0-4.6-0.4-6.5-1.2c-1.9-0.8-3.5-1.9-4.9-3.4c-1.3-1.5-2.4-3.3-3.1-5.4
		c-0.7-2.1-1.1-4.5-1.1-7.1s0.4-5,1.1-7.1c0.7-2.1,1.7-3.9,3.1-5.4c1.4-1.5,3-2.6,4.9-3.4c1.9-0.8,4.1-1.2,6.5-1.2
		c2.4,0,4.6,0.4,6.5,1.2c1.9,0.8,3.5,1.9,4.9,3.4c1.3,1.5,2.3,3.3,3,5.4c0.7,2.1,1,4.5,1,7.1s-0.3,5-1,7.1c-0.7,2.1-1.7,3.9-3,5.4
		c-1.3,1.5-2.9,2.6-4.9,3.4C199.8,33.8,197.6,34.2,195.1,34.2z M195.1,28.4c2.9,0,5-1,6.4-2.9c1.4-1.9,2.1-4.7,2.1-8.4
		c0-3.6-0.7-6.4-2.1-8.3c-1.4-2-3.5-2.9-6.4-2.9c-2.9,0-5,1-6.4,2.9s-2.1,4.7-2.1,8.3c0,3.6,0.7,6.4,2.1,8.4
		C190.1,27.4,192.2,28.4,195.1,28.4z"/>
	<path class="st0" d="M216.2,0.8h6.1l13.4,21.4V0.8h6.6v32.6h-6.1l-13.5-21.2v21.2h-6.6V0.8z"/>
</g>
</svg>
