<svg width="30" height="25" viewBox="0 0 30 25" fill="none" xmlns="http://www.w3.org/2000/svg">
<path d="M0.830764 2.46631C0.371946 2.46631 0 2.83691 0 3.29407C0 3.75123 0.371946 4.12184 0.830764 4.12184H6.69087L9.42865 19.1692C9.5003 19.563 9.84444 19.8493 10.2461 19.8493H26.7691C27.1596 19.8493 27.4973 19.5784 27.5807 19.1983L29.9807 8.2534C30.0786 7.80677 29.7946 7.3656 29.3464 7.26802C28.8981 7.17044 28.4554 7.45339 28.3574 7.90002L26.1002 18.1938H10.9398L8.20201 3.14642C8.13037 2.75263 7.78623 2.46631 7.38457 2.46631H0.830764Z" fill="#6D8D3F"/>
<path d="M24.1845 24.9999C25.1531 24.9999 25.9383 24.2175 25.9383 23.2524C25.9383 22.2873 25.1531 21.5049 24.1845 21.5049C23.2159 21.5049 22.4306 22.2873 22.4306 23.2524C22.4306 24.2175 23.2159 24.9999 24.1845 24.9999Z" fill="#6D8D3F"/>
<path d="M14.6768 23.2524C14.6768 24.2175 13.8916 24.9999 12.923 24.9999C11.9544 24.9999 11.1692 24.2175 11.1692 23.2524C11.1692 22.2873 11.9544 21.5049 12.923 21.5049C13.8916 21.5049 14.6768 22.2873 14.6768 23.2524Z" fill="#6D8D3F"/>
<path d="M18.0868 12V4.2L18.7708 4.908H16.3108V3.6H19.6468V12H18.0868Z" fill="#6D8D3F"/>
</svg>
