<svg width="56" height="56" viewBox="0 0 56 56" fill="none" xmlns="http://www.w3.org/2000/svg">
<path d="M28 56C43.464 56 56 43.464 56 28C56 12.536 43.464 0 28 0C12.536 0 0 12.536 0 28C0 43.464 12.536 56 28 56Z" fill="#6D8D3F"/>
<path d="M28 55.5C43.1878 55.5 55.5 43.1878 55.5 28C55.5 12.8122 43.1878 0.5 28 0.5C12.8122 0.5 0.5 12.8122 0.5 28C0.5 43.1878 12.8122 55.5 28 55.5Z" fill="#6D8D3F" stroke="#707070"/>
<path fill-rule="evenodd" clip-rule="evenodd" d="M28.3889 38C36.3357 38 42.7778 33.299 42.7778 27.5C42.7778 21.701 36.3357 17 28.3889 17C20.4421 17 14 21.701 14 27.5C14 29.9635 15.1626 32.2289 17.1093 34.0198C16.3266 35.3875 15.1485 36.3775 14.3889 36.8333C17.615 37.755 20.0446 37.3113 21.4564 36.7032C23.5126 37.5297 25.8755 38 28.3889 38Z" fill="#F2ECEB"/>
</svg>
