<?xml version="1.0" encoding="UTF-8"?><svg id="Capa_2" xmlns="http://www.w3.org/2000/svg" viewBox="0 0 24.7 24.7"><defs><style>.cls-1{fill:#f3edec;}</style></defs><g id="Capa_1-2"><g><path class="cls-1" d="M18.89,4.41c-.8,0-1.45,.65-1.45,1.45s.65,1.45,1.45,1.45,1.45-.65,1.45-1.45-.65-1.45-1.45-1.45Z"/><path class="cls-1" d="M12.45,6.27c-3.35,0-6.08,2.73-6.08,6.08s2.73,6.08,6.08,6.08,6.08-2.73,6.08-6.08-2.73-6.08-6.08-6.08Zm0,9.98c-2.15,0-3.9-1.75-3.9-3.9s1.75-3.9,3.9-3.9,3.9,1.75,3.9,3.9-1.75,3.9-3.9,3.9Z"/><path class="cls-1" d="M17.28,24.7H7.42c-4.09,0-7.42-3.33-7.42-7.42V7.42C0,3.33,3.33,0,7.42,0h9.86c4.09,0,7.42,3.33,7.42,7.42v9.86c0,4.09-3.33,7.42-7.42,7.42ZM7.42,2.32c-2.81,0-5.1,2.29-5.1,5.1v9.86c0,2.81,2.29,5.1,5.1,5.1h9.86c2.81,0,5.1-2.29,5.1-5.1V7.42c0-2.81-2.29-5.1-5.1-5.1H7.42Z"/></g></g></svg>