<?xml version="1.0" encoding="utf-8"?>
<!-- Generator: Adobe Illustrator 19.1.0, SVG Export Plug-In . SVG Version: 6.00 Build 0)  -->
<svg version="1.1" xmlns="http://www.w3.org/2000/svg" xmlns:xlink="http://www.w3.org/1999/xlink" x="0px" y="0px"
	 viewBox="0 0 29.2 29.1" style="enable-background:new 0 0 29.2 29.1;" xml:space="preserve">
<style type="text/css">
	.st0{fill:#4C4C4C;}
	.st1{opacity:0.8;fill:url(#SVGID_1_);}
	.st2{fill:url(#SVGID_2_);}
	.st3{opacity:0.8;fill:url(#SVGID_3_);}
	.st4{fill:url(#SVGID_4_);}
	.st5{fill:#FFFFFF;}
	.st6{opacity:0.8;fill:url(#SVGID_5_);}
	.st7{fill:url(#SVGID_6_);}
	.st8{opacity:0.8;fill:url(#SVGID_7_);}
	.st9{fill:url(#SVGID_8_);}
	.st10{fill-rule:evenodd;clip-rule:evenodd;fill:#FFFFFF;}
	.st11{opacity:0.8;fill:url(#SVGID_9_);}
	.st12{fill:url(#SVGID_10_);}
	.st13{opacity:0.8;fill:url(#SVGID_11_);}
	.st14{fill:url(#SVGID_12_);}
	.st15{opacity:0.8;fill:url(#SVGID_13_);}
	.st16{fill:url(#SVGID_14_);}
	.st17{opacity:0.8;fill:url(#SVGID_15_);}
	.st18{fill:url(#SVGID_16_);}
	.st19{fill-rule:evenodd;clip-rule:evenodd;fill:#EE1D52;}
	.st20{fill-rule:evenodd;clip-rule:evenodd;fill:#69C9D0;}
	.st21{opacity:0.8;fill:url(#SVGID_17_);}
	.st22{fill:url(#SVGID_18_);}
	.st23{opacity:0.8;fill:url(#SVGID_19_);}
	.st24{fill:url(#SVGID_20_);}
	.st25{opacity:0.8;fill:url(#SVGID_21_);}
	.st26{fill:url(#SVGID_22_);}
	.st27{opacity:0.8;fill:url(#SVGID_23_);}
	.st28{fill:url(#SVGID_24_);}
</style>
<g id="BACKGROUND">
</g>
<g id="ELEMENTS">
	<path class="st5" d="M14.6-0.1C6.5-0.1,0,6.5,0,14.5s6.5,14.6,14.6,14.6s14.6-6.5,14.6-14.6S22.7-0.1,14.6-0.1z M22.8,9.5
		c0,0,0,0.1-0.1,0.3c-0.4,0.5-0.8,1-1.3,1.3c-0.1,0.1-0.2,0.1-0.2,0.2c0,2.6-0.7,5.3-2.6,7.2c-2.4,2.4-6.1,3.1-9.4,2.2
		C8.6,20.5,8,20.3,7.4,20c-0.2-0.1-0.4-0.2-0.6-0.3c0,0-0.1-0.1,0-0.1c0,0,0.1,0,0.2,0c0.9,0.1,1.8,0,2.7-0.3
		c0.5-0.2,1.5-0.5,1.8-0.9c0,0,0,0,0,0c-0.1,0-0.2,0-0.4,0c-0.9-0.3-2.1-0.7-2.6-2.2c0-0.1,0-0.1,0.1-0.1c0.7,0.1,1,0,1.2,0
		c-0.1,0-0.3-0.1-0.4-0.1c-1.1-0.4-1.9-1.5-2.1-2.7c0-0.1,0-0.3,0-0.4c0-0.1,0-0.1,0.1-0.1c0.6,0.3,1.2,0.4,1.3,0.4
		c-0.1-0.1-0.3-0.2-0.4-0.4c-1-0.9-1.3-2.8-0.6-3.9c0.1-0.1,0.1-0.1,0.2,0c1.8,2,3.9,3,6.6,3.3c0.1,0,0.1,0,0.1-0.1
		c-0.1-0.5-0.1-0.9,0-1.4c0.1-0.5,0.3-0.9,0.6-1.3c0.3-0.4,0.7-0.7,1.1-0.9C16.8,8.1,17.3,8,17.8,8c0.5,0,1,0,1.4,0.2
		c0.3,0.1,0.6,0.3,0.9,0.6c0.1,0,0.1,0.1,0.2,0.2c0,0,0.1,0,0.1,0c0.7-0.2,1.3-0.4,1.9-0.7c0,0,0.1,0,0.1,0c0,0,0,0.1,0,0.1
		c-0.1,0.4-0.3,0.7-0.5,1c-0.2,0.2-0.5,0.7-0.8,0.7C21.6,9.9,22.2,9.8,22.8,9.5C22.8,9.5,22.8,9.5,22.8,9.5
		C22.8,9.5,22.8,9.5,22.8,9.5z"/>
</g>
</svg>
