<?xml version="1.0" encoding="utf-8"?>
<!-- Generator: Adobe Illustrator 19.1.0, SVG Export Plug-In . SVG Version: 6.00 Build 0)  -->
<svg version="1.1" xmlns="http://www.w3.org/2000/svg" xmlns:xlink="http://www.w3.org/1999/xlink" x="0px" y="0px"
	 viewBox="0 0 29.2 29.1" style="enable-background:new 0 0 29.2 29.1;" xml:space="preserve">
<style type="text/css">
	.st0{fill:#4C4C4C;}
	.st1{opacity:0.8;fill:url(#SVGID_1_);}
	.st2{fill:url(#SVGID_2_);}
	.st3{opacity:0.8;fill:url(#SVGID_3_);}
	.st4{fill:url(#SVGID_4_);}
	.st5{fill:#FFFFFF;}
	.st6{opacity:0.8;fill:url(#SVGID_5_);}
	.st7{fill:url(#SVGID_6_);}
	.st8{opacity:0.8;fill:url(#SVGID_7_);}
	.st9{fill:url(#SVGID_8_);}
	.st10{fill-rule:evenodd;clip-rule:evenodd;fill:#FFFFFF;}
	.st11{opacity:0.8;fill:url(#SVGID_9_);}
	.st12{fill:url(#SVGID_10_);}
	.st13{opacity:0.8;fill:url(#SVGID_11_);}
	.st14{fill:url(#SVGID_12_);}
	.st15{opacity:0.8;fill:url(#SVGID_13_);}
	.st16{fill:url(#SVGID_14_);}
	.st17{opacity:0.8;fill:url(#SVGID_15_);}
	.st18{fill:url(#SVGID_16_);}
	.st19{fill-rule:evenodd;clip-rule:evenodd;fill:#EE1D52;}
	.st20{fill-rule:evenodd;clip-rule:evenodd;fill:#69C9D0;}
	.st21{opacity:0.8;fill:url(#SVGID_17_);}
	.st22{fill:url(#SVGID_18_);}
	.st23{opacity:0.8;fill:url(#SVGID_19_);}
	.st24{fill:url(#SVGID_20_);}
	.st25{opacity:0.8;fill:url(#SVGID_21_);}
	.st26{fill:url(#SVGID_22_);}
	.st27{opacity:0.8;fill:url(#SVGID_23_);}
	.st28{fill:url(#SVGID_24_);}
</style>
<g id="BACKGROUND">
</g>
<g id="ELEMENTS">
	<path class="st5" d="M14.6-0.1C6.5-0.1,0,6.5,0,14.5c0,8.1,6.5,14.6,14.6,14.6c8.1,0,14.6-6.5,14.6-14.6
		C29.2,6.5,22.7-0.1,14.6-0.1z M7.3,8h14.6c0.4,0,0.8,0.2,1,0.5l-8.4,3.7L6.2,8.5C6.5,8.2,6.9,8,7.3,8z M23.4,19.7
		c0,0.8-0.6,1.4-1.4,1.4H7.3c-0.8,0-1.4-0.6-1.4-1.4v-9.1l8.8,3.8l8.7-3.9V19.7z"/>
</g>
</svg>
