<?xml version="1.0" encoding="utf-8"?>
<!-- Generator: Adobe Illustrator 19.1.0, SVG Export Plug-In . SVG Version: 6.00 Build 0)  -->
<svg version="1.1" xmlns="http://www.w3.org/2000/svg" xmlns:xlink="http://www.w3.org/1999/xlink" x="0px" y="0px"
	 viewBox="0 0 29.2 29.1" style="enable-background:new 0 0 29.2 29.1;" xml:space="preserve">
<style type="text/css">
	.st0{fill:#4C4C4C;}
	.st1{opacity:0.8;fill:url(#SVGID_1_);}
	.st2{fill:url(#SVGID_2_);}
	.st3{opacity:0.8;fill:url(#SVGID_3_);}
	.st4{fill:url(#SVGID_4_);}
	.st5{fill:#FFFFFF;}
	.st6{opacity:0.8;fill:url(#SVGID_5_);}
	.st7{fill:url(#SVGID_6_);}
	.st8{opacity:0.8;fill:url(#SVGID_7_);}
	.st9{fill:url(#SVGID_8_);}
	.st10{fill-rule:evenodd;clip-rule:evenodd;fill:#FFFFFF;}
	.st11{opacity:0.8;fill:url(#SVGID_9_);}
	.st12{fill:url(#SVGID_10_);}
	.st13{opacity:0.8;fill:url(#SVGID_11_);}
	.st14{fill:url(#SVGID_12_);}
	.st15{opacity:0.8;fill:url(#SVGID_13_);}
	.st16{fill:url(#SVGID_14_);}
	.st17{opacity:0.8;fill:url(#SVGID_15_);}
	.st18{fill:url(#SVGID_16_);}
	.st19{fill-rule:evenodd;clip-rule:evenodd;fill:#EE1D52;}
	.st20{fill-rule:evenodd;clip-rule:evenodd;fill:#69C9D0;}
	.st21{opacity:0.8;fill:url(#SVGID_17_);}
	.st22{fill:url(#SVGID_18_);}
	.st23{opacity:0.8;fill:url(#SVGID_19_);}
	.st24{fill:url(#SVGID_20_);}
	.st25{opacity:0.8;fill:url(#SVGID_21_);}
	.st26{fill:url(#SVGID_22_);}
	.st27{opacity:0.8;fill:url(#SVGID_23_);}
	.st28{fill:url(#SVGID_24_);}
</style>
<g id="BACKGROUND">
</g>
<g id="ELEMENTS">
	<g>
		<path class="st5" d="M17,14.4l-3.9-2.1c-0.2-0.1-0.7,0-0.7,0.2v4.1c0,0.2,0.5,0.3,0.7,0.2l4-2C17.3,14.7,17.2,14.5,17,14.4z"/>
		<path class="st5" d="M14.6-0.1C6.5-0.1,0,6.5,0,14.5s6.5,14.6,14.6,14.6c8.1,0,14.6-6.5,14.6-14.6S22.7-0.1,14.6-0.1z M22.4,16.6
			c0,1.9-1.6,3.5-3.5,3.5h-9c-1.9,0-3.5-1.6-3.5-3.5v-4.2c0-1.9,1.6-3.5,3.5-3.5h9c1.9,0,3.5,1.6,3.5,3.5V16.6z"/>
	</g>
</g>
</svg>
